<?xml version="1.0" encoding="iso-8859-1"?>
<!-- Generator: Adobe Illustrator 18.0.0, SVG Export Plug-In . SVG Version: 6.00 Build 0)  -->
<!DOCTYPE svg PUBLIC "-//W3C//DTD SVG 1.1//EN" "http://www.w3.org/Graphics/SVG/1.1/DTD/svg11.dtd">
<svg version="1.1" id="Capa_1" xmlns="http://www.w3.org/2000/svg" xmlns:xlink="http://www.w3.org/1999/xlink" x="0px" y="0px"
	 viewBox="0 0 320 320" style="enable-background:new 0 0 320 320;" xml:space="preserve">
<g>
	<path d="M257.907,126.169h-136.33V95.663c0-22.422,17.236-40.663,38.422-40.663c21.187,0,38.424,18.241,38.424,40.663
		c0,5.522,4.478,10,10,10h35c5.522,0,10-4.478,10-10C253.423,42.914,211.513,0,159.999,0c-51.513,0-93.422,42.914-93.422,95.663
		v30.506h-4.483c-16.284,0-29.532,13.597-29.532,30.31v133.211C32.562,306.402,45.81,320,62.094,320h195.813
		c16.283,0,29.531-13.598,29.531-30.311V156.479C287.438,139.766,274.19,126.169,257.907,126.169z M86.577,95.663
		C86.577,53.942,119.514,20,159.999,20c37.197,0,68.022,28.651,72.785,65.663h-15.155C213.024,56.954,188.935,35,159.999,35
		c-32.214,0-58.422,27.213-58.422,60.663v30.506h-15V95.663z M267.438,289.689c0,5.686-4.275,10.311-9.531,10.311H62.094
		c-5.256,0-9.532-4.625-9.532-10.311V156.479c0-5.685,4.276-10.31,9.532-10.31h195.813c5.256,0,9.531,4.625,9.531,10.31V289.689z"/>
	<path d="M189.504,202.509c0-16.273-13.235-29.513-29.505-29.513c-16.268,0-29.503,13.239-29.503,29.513
		c0,8.318,3.452,16.06,9.343,21.557l-7.075,31.729c-0.159,0.715-0.239,1.444-0.239,2.177c0,8.667,8.488,15.202,19.744,15.202h15.467
		c11.254,0,19.74-6.535,19.74-15.202c0-0.732-0.08-1.462-0.24-2.177l-7.076-31.729C186.051,218.568,189.504,210.827,189.504,202.509
		z M153.84,253.173l6.159-27.622l6.161,27.622H153.84z M164.36,210.96c-1.944,1.01-3.443,2.591-4.361,4.455
		c-0.918-1.864-2.417-3.445-4.361-4.455c-3.171-1.647-5.142-4.886-5.142-8.451c0-5.245,4.263-9.513,9.503-9.513
		c5.241,0,9.505,4.268,9.505,9.513C169.504,206.073,167.533,209.312,164.36,210.96z"/>
</g>
<g>
</g>
<g>
</g>
<g>
</g>
<g>
</g>
<g>
</g>
<g>
</g>
<g>
</g>
<g>
</g>
<g>
</g>
<g>
</g>
<g>
</g>
<g>
</g>
<g>
</g>
<g>
</g>
<g>
</g>
</svg>
