<?xml version="1.0" encoding="iso-8859-1"?>
<!-- Generator: Adobe Illustrator 18.0.0, SVG Export Plug-In . SVG Version: 6.00 Build 0)  -->
<!DOCTYPE svg PUBLIC "-//W3C//DTD SVG 1.1//EN" "http://www.w3.org/Graphics/SVG/1.1/DTD/svg11.dtd">
<svg version="1.1" id="Capa_1" xmlns="http://www.w3.org/2000/svg" xmlns:xlink="http://www.w3.org/1999/xlink" x="0px" y="0px"
	 viewBox="0 0 319.949 319.949" style="enable-background:new 0 0 319.949 319.949;" xml:space="preserve">
<g>
	<path d="M261.891,319.945c-2.599,0-5.101-1.012-6.97-2.828l-2.515-2.444l-22.722,0.657c-8.579,0.197-15.594-6.484-15.832-15.109
		l-0.34-12.18l-11.554,0.334c-0.145,0.004-0.295,0.006-0.446,0.006c-8.395,0-15.153-6.641-15.385-15.119l-0.337-12.174
		l-11.555,0.334c-0.154,0.004-0.295,0.006-0.437,0.006c-8.4,0-15.162-6.642-15.395-15.121l-0.677-24.32
		c-2.093-2.127-5.762-5.599-9.706-9.23c-3.898,2.241-8.346,3.461-12.896,3.461c-6.772,0-13.196-2.62-18.086-7.377
		c-0.2-0.194-0.392-0.397-0.575-0.607c-0.483-0.557-1.007-1.175-1.538-1.828c-3.937,0.455-7.903,0.685-11.859,0.685
		c-27.553,0-53.453-10.775-72.931-30.343c-40.182-40.362-40.182-106.036,0-146.399C49.615,10.78,75.517,0.004,103.071,0.004
		s53.455,10.776,72.934,30.344c23.722,23.828,34.284,57.301,28.743,90.367c2.623,4.08,4.098,8.83,4.234,13.808
		c0.117,4.269-0.747,8.412-2.491,12.158l109.77,110.439c1.794,1.806,2.832,4.227,2.903,6.771l0.774,27.738
		c0.401,14.682-10.999,26.963-25.415,27.383l-32.346,0.93C262.082,319.944,261.986,319.945,261.891,319.945z M256.344,294.554
		c2.599,0,5.101,1.013,6.97,2.829l2.515,2.444l28.117-0.809c3.407-0.099,6.102-3.167,6.001-6.838l-0.664-23.772L187.876,156.323
		c-1.504-1.514-2.484-3.469-2.799-5.579l-0.383-2.574c-0.443-2.987,0.485-6.015,2.529-8.238c1.189-1.294,1.817-3.021,1.767-4.86
		c-0.049-1.788-0.752-3.446-1.978-4.669c-2.407-2.398-3.431-5.855-2.719-9.178c5.987-27.927-2.41-56.624-22.463-76.768
		c-15.697-15.769-36.565-24.453-58.76-24.453S60.009,28.688,44.31,44.457c-32.437,32.582-32.437,85.598,0,118.179
		c15.697,15.77,36.563,24.453,58.757,24.453c5.311,0,10.642-0.513,15.848-1.522c4.327-0.844,8.692,1.251,10.749,5.148
		c0.576,1.092,0.369,4.093,5.202,4.926c1.617,0.279,3.435-0.101,4.591-1.331l1.295-1.469c1.764-2,4.251-3.213,6.912-3.369
		c2.676-0.154,5.275,0.755,7.261,2.533c0.2,0.18,4.968,4.451,9.827,8.99c10.646,9.945,12.744,12.306,12.874,17.028l0.647,23.272
		l16.947-0.49c2.676-0.084,5.229,0.906,7.157,2.728c1.93,1.823,3.055,4.339,3.128,6.992l0.491,17.724l16.943-0.49
		c2.677-0.086,5.229,0.905,7.156,2.728c1.93,1.822,3.055,4.337,3.129,6.989l0.495,17.729l22.334-0.646
		C256.151,294.555,256.248,294.554,256.344,294.554z"/>
	<path d="M84.895,120.428c-9.363,0-18.163-3.659-24.779-10.305c-13.631-13.695-13.63-35.974,0-49.664
		c6.616-6.646,15.418-10.308,24.782-10.308s18.166,3.661,24.782,10.309c13.629,13.69,13.627,35.968-0.003,49.659
		C103.062,116.766,94.261,120.428,84.895,120.428z M84.898,70.152c-4.005,0-7.772,1.569-10.608,4.418
		c-5.885,5.911-5.885,15.53,0.001,21.443c2.834,2.847,6.601,4.415,10.604,4.415c4.005,0,7.771-1.569,10.607-4.418
		c5.886-5.913,5.887-15.53,0.004-21.44C92.671,71.721,88.903,70.152,84.898,70.152z"/>
	<path d="M271.669,282.908c-2.566,0-5.133-0.981-7.087-2.945l-88.698-89.1c-3.896-3.914-3.882-10.245,0.032-14.142
		c3.912-3.895,10.245-3.884,14.142,0.032l88.698,89.1c3.896,3.914,3.882,10.245-0.032,14.142
		C276.773,281.937,274.221,282.908,271.669,282.908z"/>
</g>
<g>
</g>
<g>
</g>
<g>
</g>
<g>
</g>
<g>
</g>
<g>
</g>
<g>
</g>
<g>
</g>
<g>
</g>
<g>
</g>
<g>
</g>
<g>
</g>
<g>
</g>
<g>
</g>
<g>
</g>
</svg>
