<svg id="Layer_1" enable-background="new 0 0 512.002 512.002" height="512" viewBox="0 0 512.002 512.002" width="512" xmlns="http://www.w3.org/2000/svg"><g><g><path d="m303.036 61.58c-5.377-1.295-10.771 2.01-12.065 7.378-1.294 5.369 2.009 10.771 7.378 12.065 81.048 19.541 137.652 91.495 137.652 174.979 0 99.252-80.748 179.999-180 179.999s-180-80.747-180-179.999c0-83.486 56.607-155.44 137.659-174.979 5.369-1.294 8.672-6.696 7.378-12.065-1.294-5.368-6.692-8.673-12.065-7.378-42.882 10.338-81.732 35.124-109.395 69.794-28.509 35.729-43.577 78.826-43.577 124.629 0 110.28 89.72 199.999 200 199.999s200-89.719 200-199.999c0-45.802-15.067-88.896-43.574-124.626-27.661-34.671-66.511-59.459-109.391-69.797z"/><path d="m505.974 231.947-11.698-21.826 1.952-26.984c1.874-17.297-5.025-34.175-18.479-45.184l-19.42-15.902-7.639-23.012c-4.278-17.595-17.642-31.736-34.979-36.973l-23.971-7.242-18.358-21.221c-10.863-12.777-27.305-19.421-43.982-17.785l-24.881 2.479-24.456-12.268c-15.072-8.034-33.042-8.04-48.118-.001l-21.825 11.698-26.983-1.951c-17.296-1.883-34.176 5.024-45.185 18.479l-15.902 19.42-23.012 7.639c-17.595 4.277-31.736 17.64-36.974 34.977l-7.24 23.971-21.223 18.359c-12.775 10.864-19.424 27.302-17.783 43.982l2.479 24.88-12.268 24.458c-8.035 15.071-8.042 33.041-.002 48.115l11.698 21.827-1.951 26.983c-1.876 17.295 5.023 34.174 18.479 45.184l19.42 15.901 7.639 23.014c4.278 17.595 17.641 31.736 34.979 36.974l23.971 7.24 18.358 21.221c10.862 12.776 27.297 19.42 43.983 17.785l24.879-2.48 24.455 12.268c7.539 4.021 15.801 6.031 24.065 6.03 8.258 0 16.518-2.008 24.053-6.027l21.827-11.698 26.981 1.951c17.296 1.879 34.178-5.021 45.186-18.478l15.902-19.421 23.013-7.639c17.595-4.276 31.735-17.64 36.974-34.979l7.24-23.97 21.221-18.358c12.776-10.863 19.426-27.301 17.785-43.983l-2.479-24.879 12.267-24.455c8.037-15.072 8.044-33.042.002-48.119zm-17.693 38.788c-.044.081-.087.163-.128.246l-13.626 27.164c-.849 1.692-1.2 3.591-1.013 5.475l2.766 27.75c.998 10.148-3.053 20.158-10.902 26.832l-23.478 20.311c-1.432 1.238-2.482 2.858-3.03 4.671l-8.079 26.744c-3.221 10.665-11.972 18.863-22.838 21.396-.297.069-.591.152-.88.248l-26.173 8.688c-1.797.597-3.388 1.691-4.587 3.155l-17.742 21.667c-6.737 8.234-17.086 12.444-27.679 11.248-.132-.015-.265-.027-.396-.036l-30.063-2.174c-1.896-.141-3.776.265-5.445 1.16l-24.363 13.058c-9.189 4.898-20.164 4.878-29.357-.056-.081-.044-.163-.087-.245-.128l-27.164-13.627c-1.396-.7-2.932-1.062-4.484-1.062-.33 0-.661.017-.992.049l-27.75 2.767c-10.135.992-20.156-3.053-26.831-10.902l-20.312-23.478c-1.238-1.432-2.858-2.482-4.671-3.03l-26.745-8.079c-10.664-3.221-18.862-11.972-21.396-22.838-.069-.297-.152-.591-.248-.88l-8.688-26.174c-.597-1.797-1.69-3.387-3.155-4.587l-21.666-17.74c-8.235-6.739-12.441-17.087-11.249-27.68.015-.132.027-.265.036-.396l2.174-30.063c.137-1.889-.266-3.777-1.16-5.445l-13.058-24.363c-4.9-9.188-4.879-20.162.057-29.356.043-.081.086-.163.127-.246l13.626-27.165c.849-1.692 1.2-3.591 1.013-5.475l-2.765-27.751c-.998-10.147 3.053-20.157 10.9-26.832l23.478-20.311c1.433-1.238 2.483-2.858 3.031-4.671l8.079-26.745c3.221-10.664 11.972-18.862 22.838-21.396.297-.069.591-.152.88-.248l26.173-8.688c1.797-.597 3.388-1.691 4.587-3.155l17.741-21.666c6.738-8.235 17.086-12.444 27.68-11.249.132.015.265.027.396.036l30.063 2.174c1.892.134 3.777-.265 5.446-1.16l24.361-13.058c9.187-4.9 20.162-4.88 29.358.056.081.043.162.086.244.127l27.164 13.627c1.693.85 3.594 1.196 5.476 1.013l27.752-2.766c10.141-.993 20.157 3.053 26.831 10.902l20.312 23.478c1.238 1.432 2.858 2.482 4.67 3.029l26.745 8.081c10.665 3.221 18.863 11.972 21.396 22.838.069.297.152.591.248.88l8.688 26.173c.597 1.797 1.691 3.388 3.155 4.587l21.666 17.74c8.235 6.738 12.44 17.087 11.249 27.682-.015.132-.027.264-.036.396l-2.175 30.062c-.137 1.889.266 3.777 1.16 5.445l13.059 24.364c4.901 9.187 4.88 20.161-.056 29.357z"/><path d="m170.775 161.193-41.347 62.524c-5.18 7.822-4.482 18.165 1.676 25.133l110.178 125.328c3.748 4.249 9.1 6.688 14.684 6.693h.016c5.565 0 10.905-2.417 14.661-6.634 24.841-27.394 49.703-55.968 73.749-83.603 11.956-13.741 24.319-27.95 36.471-41.771 6.402-7.258 6.881-18.089 1.191-25.896l-41.584-62.884c-3.705-5.599-9.829-8.945-16.394-8.953h-136.174c-7.049.001-13.564 3.843-17.127 10.063zm31.484 83.981 31.238 89.856-78.994-89.856zm71.951-74.043 15.199 54.043h-66.839l15.198-54.043zm14.335 74.043-32.556 93.646-32.556-93.646zm40.759 32.332c-16.74 19.238-33.878 38.927-51.104 58.333l31.519-90.665h47.776c-9.459 10.805-18.946 21.707-28.191 32.332zm30.231-52.332h-49.351l-15.198-54.043h28.811zm-171.403-54.043h28.86l-15.198 54.043h-49.351l35.221-53.262c.165-.248.317-.504.459-.766.003-.005.006-.01.009-.015z"/><path d="m256.008 76.001c5.522 0 10-4.478 10-10s-4.478-10-10-10h-.007c-5.522 0-9.996 4.478-9.996 10s4.48 10 10.003 10z"/></g></g></svg>