<svg enable-background="new 0 0 24 24" height="512" viewBox="0 0 24 24" width="512" xmlns="http://www.w3.org/2000/svg"><g id="Safe" display="none"><path d="m22 0h-20-2v2 20 2h2 20 2v-2-20-2zm0 22h-20v-20h20z" display="inline" fill="#00aeef" opacity=".2"/></g><g id="Lineal" style="display:none;fill:none;stroke:#000;stroke-width:2;stroke-linecap:round;stroke-linejoin:round;stroke-miterlimit:10"><circle cx="15.5" cy="12.5" display="inline" r="6.5"/><path d="m6 9h-5" display="inline"/><path d="m6 13h-3" display="inline"/><path d="m6 17h-1" display="inline"/></g><g id="Lineal_Expanded"><g><path d="m15.5 5c-4.136 0-7.5 3.364-7.5 7.5s3.364 7.5 7.5 7.5 7.5-3.364 7.5-7.5-3.364-7.5-7.5-7.5zm0 13c-3.032 0-5.5-2.468-5.5-5.5s2.468-5.5 5.5-5.5 5.5 2.468 5.5 5.5-2.468 5.5-5.5 5.5z"/><path d="m6 8h-5c-.553 0-1 .447-1 1s.447 1 1 1h5c.553 0 1-.447 1-1s-.447-1-1-1z"/><path d="m6 12h-3c-.553 0-1 .447-1 1s.447 1 1 1h3c.553 0 1-.447 1-1s-.447-1-1-1z"/><path d="m6 16h-1c-.553 0-1 .447-1 1s.447 1 1 1h1c.553 0 1-.447 1-1s-.447-1-1-1z"/></g></g><g stroke-miterlimit="10" stroke-width="2"><g id="Filled" display="none" stroke="#000"><circle cx="15.5" cy="12.5" display="inline" r="6.5"/><g fill="none" stroke-linecap="round" stroke-linejoin="round"><path d="m6 9h-5" display="inline"/><path d="m6 13h-3" display="inline"/><path d="m6 17h-1" display="inline"/></g></g><g id="Two" display="none" fill="none" stroke-linecap="round" stroke-linejoin="round"><circle cx="15.5" cy="12.5" display="inline" r="6.5" stroke="#495961"/><g stroke="#32e9b6"><path d="m6 9h-5" display="inline"/><path d="m6 13h-3" display="inline"/><path d="m6 17h-1" display="inline"/></g></g><g id="Colored" display="none" stroke="#495961" stroke-linecap="round" stroke-linejoin="round"><circle cx="15.5" cy="12.5" display="inline" fill="#fbf27b" r="6.5"/><g fill="none"><path d="m6 9h-5" display="inline"/><path d="m6 13h-3" display="inline"/><path d="m6 17h-1" display="inline"/></g></g></g></svg>